<svg xmlns="http://www.w3.org/2000/svg" xmlns:xlink="http://www.w3.org/1999/xlink" width="500" zoomAndPan="magnify" viewBox="0 0 375 187.499995" height="250" preserveAspectRatio="xMidYMid meet" version="1.0"><defs><g/><clipPath id="cfb6bedd95"><path d="M 337 0 L 374.5 0 L 374.5 50 L 337 50 Z M 337 0 " clip-rule="nonzero"/></clipPath></defs><g fill="#000000" fill-opacity="1"><g transform="translate(-3.109836, 48.431464)"><g><path d="M 4.15625 0 L 4.15625 -46.796875 L 12.671875 -46.796875 L 30.625 -19.671875 L 26.59375 -19.671875 L 44.484375 -46.796875 L 53 -46.796875 L 53 0 L 41.3125 0 L 41.3125 -27.265625 L 43.15625 -26.734375 L 32.40625 -10.5625 L 24.75 -10.5625 L 14.0625 -26.734375 L 15.90625 -27.265625 L 15.90625 0 Z M 4.15625 0 "/></g></g></g><g fill="#000000" fill-opacity="1"><g transform="translate(58.079076, 48.431464)"><g><path d="M 0.71875 0 L 18.875 -46.796875 L 30.296875 -46.796875 L 48.25 0 L 35.90625 0 L 22.375 -39.34375 L 26.65625 -39.34375 L 12.796875 0 Z M 11.75 -8.1875 L 11.75 -17.5625 L 37.546875 -17.5625 L 37.546875 -8.1875 Z M 11.75 -8.1875 "/></g></g></g><g fill="#000000" fill-opacity="1"><g transform="translate(111.083066, 48.431464)"><g><path d="M 26.859375 0.71875 C 23.296875 0.71875 19.992188 0.113281 16.953125 -1.09375 C 13.921875 -2.300781 11.269531 -3.992188 9 -6.171875 C 6.738281 -8.347656 4.976562 -10.910156 3.71875 -13.859375 C 2.46875 -16.804688 1.84375 -20 1.84375 -23.4375 C 1.84375 -26.90625 2.46875 -30.101562 3.71875 -33.03125 C 4.976562 -35.957031 6.738281 -38.5 9 -40.65625 C 11.269531 -42.8125 13.910156 -44.503906 16.921875 -45.734375 C 19.941406 -46.972656 23.210938 -47.59375 26.734375 -47.59375 C 30.429688 -47.59375 33.753906 -47.007812 36.703125 -45.84375 C 39.648438 -44.675781 42.242188 -43.054688 44.484375 -40.984375 L 36.5625 -33.0625 C 35.457031 -34.289062 34.09375 -35.257812 32.46875 -35.96875 C 30.84375 -36.675781 28.929688 -37.03125 26.734375 -37.03125 C 24.835938 -37.03125 23.109375 -36.71875 21.546875 -36.09375 C 19.984375 -35.476562 18.628906 -34.566406 17.484375 -33.359375 C 16.347656 -32.148438 15.457031 -30.707031 14.8125 -29.03125 C 14.175781 -27.363281 13.859375 -25.5 13.859375 -23.4375 C 13.859375 -21.363281 14.175781 -19.488281 14.8125 -17.8125 C 15.457031 -16.144531 16.347656 -14.707031 17.484375 -13.5 C 18.628906 -12.289062 19.984375 -11.363281 21.546875 -10.71875 C 23.109375 -10.082031 24.835938 -9.765625 26.734375 -9.765625 C 28.929688 -9.765625 30.863281 -10.101562 32.53125 -10.78125 C 34.207031 -11.46875 35.640625 -12.453125 36.828125 -13.734375 L 44.75 -5.8125 C 42.457031 -3.738281 39.867188 -2.128906 36.984375 -0.984375 C 34.109375 0.148438 30.734375 0.71875 26.859375 0.71875 Z M 26.859375 0.71875 "/></g></g></g><g fill="#000000" fill-opacity="1"><g transform="translate(160.786678, 48.431464)"><g><path d="M 4.15625 0 L 4.15625 -46.796875 L 15.96875 -46.796875 L 15.96875 0 Z M 32.796875 0 L 32.796875 -46.796875 L 44.609375 -46.796875 L 44.609375 0 Z M 10.890625 -19.015625 L 10.890625 -28.90625 L 37.09375 -28.90625 L 37.09375 -19.015625 Z M 10.890625 -19.015625 "/></g></g></g><g fill="#000000" fill-opacity="1"><g transform="translate(213.592641, 48.431464)"><g><path d="M 4.15625 0 L 4.15625 -46.796875 L 15.96875 -46.796875 L 15.96875 0 Z M 4.15625 0 "/></g></g></g><g fill="#000000" fill-opacity="1"><g transform="translate(237.751361, 48.431464)"><g><path d="M 4.15625 0 L 4.15625 -46.796875 L 12.40625 -46.796875 L 15.96875 -37.21875 L 15.96875 0 Z M 36.4375 0 L 9.109375 -34.71875 L 12.40625 -46.796875 L 39.796875 -12.078125 Z M 36.4375 0 L 33.390625 -9.828125 L 33.390625 -46.796875 L 45.203125 -46.796875 L 45.203125 0 Z M 36.4375 0 "/></g></g></g><g fill="#000000" fill-opacity="1"><g transform="translate(291.151395, 48.431464)"><g><path d="M 4.15625 0 L 4.15625 -46.796875 L 15.96875 -46.796875 L 15.96875 0 Z M 13.53125 0 L 13.53125 -9.96875 L 38.875 -9.96875 L 38.875 0 Z M 13.53125 -19.015625 L 13.53125 -28.703125 L 36.5 -28.703125 L 36.5 -19.015625 Z M 13.53125 -36.828125 L 13.53125 -46.796875 L 38.484375 -46.796875 L 38.484375 -36.828125 Z M 13.53125 -36.828125 "/></g></g></g><g clip-path="url(#cfb6bedd95)"><g fill="#000000" fill-opacity="1"><g transform="translate(336.564525, 48.431464)"><g><path d="M 18.8125 0.71875 C 14.894531 0.71875 11.492188 0.125 8.609375 -1.0625 C 5.734375 -2.25 3.101562 -4.117188 0.71875 -6.671875 L 8.1875 -14.1875 C 9.8125 -12.46875 11.546875 -11.15625 13.390625 -10.25 C 15.242188 -9.351562 17.335938 -8.90625 19.671875 -8.90625 C 21.648438 -8.90625 23.175781 -9.242188 24.25 -9.921875 C 25.332031 -10.609375 25.875 -11.546875 25.875 -12.734375 C 25.875 -13.835938 25.476562 -14.75 24.6875 -15.46875 C 23.894531 -16.195312 22.847656 -16.835938 21.546875 -17.390625 C 20.253906 -17.941406 18.828125 -18.46875 17.265625 -18.96875 C 15.703125 -19.476562 14.140625 -20.09375 12.578125 -20.8125 C 11.015625 -21.539062 9.582031 -22.429688 8.28125 -23.484375 C 6.988281 -24.546875 5.941406 -25.867188 5.140625 -27.453125 C 4.347656 -29.035156 3.953125 -30.992188 3.953125 -33.328125 C 3.953125 -36.316406 4.664062 -38.867188 6.09375 -40.984375 C 7.53125 -43.097656 9.523438 -44.726562 12.078125 -45.875 C 14.628906 -47.019531 17.597656 -47.59375 20.984375 -47.59375 C 24.367188 -47.59375 27.492188 -47.019531 30.359375 -45.875 C 33.222656 -44.726562 35.578125 -43.144531 37.421875 -41.125 L 29.890625 -33.65625 C 28.484375 -35.0625 27.054688 -36.117188 25.609375 -36.828125 C 24.160156 -37.535156 22.578125 -37.890625 20.859375 -37.890625 C 19.222656 -37.890625 17.941406 -37.601562 17.015625 -37.03125 C 16.097656 -36.457031 15.640625 -35.640625 15.640625 -34.578125 C 15.640625 -33.523438 16.035156 -32.664062 16.828125 -32 C 17.617188 -31.34375 18.660156 -30.757812 19.953125 -30.25 C 21.253906 -29.75 22.6875 -29.234375 24.25 -28.703125 C 25.8125 -28.179688 27.363281 -27.566406 28.90625 -26.859375 C 30.445312 -26.160156 31.863281 -25.257812 33.15625 -24.15625 C 34.457031 -23.050781 35.503906 -21.660156 36.296875 -19.984375 C 37.085938 -18.316406 37.484375 -16.296875 37.484375 -13.921875 C 37.484375 -9.265625 35.84375 -5.660156 32.5625 -3.109375 C 29.289062 -0.554688 24.707031 0.71875 18.8125 0.71875 Z M 18.8125 0.71875 "/></g></g></g></g><g fill="#000000" fill-opacity="1"><g transform="translate(-3.109836, 106.187953)"><g><path d="M 4.15625 0 L 4.15625 -46.796875 L 15.96875 -46.796875 L 15.96875 0 Z M 13.53125 0 L 13.53125 -10.15625 L 36.109375 -10.15625 L 36.109375 0 Z M 13.53125 0 "/></g></g></g><g fill="#000000" fill-opacity="1"><g transform="translate(38.342842, 106.187953)"><g><path d="M 4.15625 0 L 4.15625 -46.796875 L 15.96875 -46.796875 L 15.96875 0 Z M 4.15625 0 "/></g></g></g><g fill="#000000" fill-opacity="1"><g transform="translate(62.501565, 106.187953)"><g><path d="M 32.53125 0 L 14.84375 -24.421875 L 31.8125 -46.796875 L 46.203125 -46.796875 L 26.859375 -22.5 L 26.859375 -26.65625 L 46.921875 0 Z M 4.15625 0 L 4.15625 -46.796875 L 15.96875 -46.796875 L 15.96875 0 Z M 4.15625 0 "/></g></g></g><g fill="#000000" fill-opacity="1"><g transform="translate(114.119399, 106.187953)"><g><path d="M 4.15625 0 L 4.15625 -46.796875 L 15.96875 -46.796875 L 15.96875 0 Z M 13.53125 0 L 13.53125 -9.96875 L 38.875 -9.96875 L 38.875 0 Z M 13.53125 -19.015625 L 13.53125 -28.703125 L 36.5 -28.703125 L 36.5 -19.015625 Z M 13.53125 -36.828125 L 13.53125 -46.796875 L 38.484375 -46.796875 L 38.484375 -36.828125 Z M 13.53125 -36.828125 "/></g></g></g><g fill="#000000" fill-opacity="1"><g transform="translate(-3.109836, 163.944441)"><g><path d="M 4.15625 0 L 4.15625 -46.796875 L 12.671875 -46.796875 L 30.625 -19.671875 L 26.59375 -19.671875 L 44.484375 -46.796875 L 53 -46.796875 L 53 0 L 41.3125 0 L 41.3125 -27.265625 L 43.15625 -26.734375 L 32.40625 -10.5625 L 24.75 -10.5625 L 14.0625 -26.734375 L 15.90625 -27.265625 L 15.90625 0 Z M 4.15625 0 "/></g></g></g><g fill="#000000" fill-opacity="1"><g transform="translate(58.079076, 163.944441)"><g><path d="M 4.15625 0 L 4.15625 -46.796875 L 15.96875 -46.796875 L 15.96875 0 Z M 13.53125 0 L 13.53125 -9.96875 L 38.875 -9.96875 L 38.875 0 Z M 13.53125 -19.015625 L 13.53125 -28.703125 L 36.5 -28.703125 L 36.5 -19.015625 Z M 13.53125 -36.828125 L 13.53125 -46.796875 L 38.484375 -46.796875 L 38.484375 -36.828125 Z M 13.53125 -36.828125 "/></g></g></g></svg>